<svg width="25" height="25" viewBox="0 0 25 25" fill="none" xmlns="http://www.w3.org/2000/svg">
<g clip-path="url(#clip0)">
<path fill-rule="evenodd" clip-rule="evenodd" d="M12.0273 0.0114762C15.2099 0.0114766 18.2622 1.27576 20.5126 3.52619C22.7631 5.77663 24.0273 8.82888 24.0273 12.0115C24.0273 15.1941 22.7631 18.2463 20.5126 20.4968C18.2622 22.7472 15.2099 24.0115 12.0273 24.0115C8.84475 24.0115 5.7925 22.7472 3.54206 20.4968C1.29163 18.2463 0.0273449 15.1941 0.0273453 12.0115C0.0273457 8.82888 1.29163 5.77663 3.54207 3.52619C5.7925 1.27576 8.84475 0.0114758 12.0273 0.0114762ZM15.9963 11.4805C16.1372 11.3396 16.3282 11.2605 16.5273 11.2605C16.7265 11.2605 16.9175 11.3396 17.0583 11.4805C17.1992 11.6213 17.2783 11.8123 17.2783 12.0115C17.2783 12.2106 17.1992 12.4016 17.0583 12.5425L12.5583 17.0425C12.4887 17.1123 12.4059 17.1677 12.3148 17.2055C12.2237 17.2434 12.126 17.2628 12.0273 17.2628C11.9287 17.2628 11.831 17.2434 11.7399 17.2055C11.6488 17.1677 11.566 17.1123 11.4963 17.0425L6.99635 12.5425C6.92661 12.4727 6.8713 12.39 6.83356 12.2989C6.79582 12.2077 6.7764 12.1101 6.7764 12.0115C6.7764 11.9129 6.79582 11.8152 6.83356 11.7241C6.8713 11.633 6.92661 11.5502 6.99635 11.4805C7.06608 11.4107 7.14886 11.3554 7.23997 11.3177C7.33108 11.28 7.42873 11.2605 7.52735 11.2605C7.62596 11.2605 7.72361 11.28 7.81472 11.3177C7.90583 11.3554 7.98861 11.4107 8.05835 11.4805L11.2773 14.701L11.2773 7.51148C11.2773 7.31256 11.3564 7.1218 11.497 6.98115C11.6377 6.84049 11.8284 6.76148 12.0273 6.76148C12.2263 6.76148 12.417 6.84049 12.5577 6.98115C12.6983 7.1218 12.7773 7.31256 12.7773 7.51148L12.7773 14.701L15.9963 11.4805Z" fill="#FFAC00"/>
</g>
<defs>
<clipPath id="clip0">
<rect width="24" height="24" fill="white" transform="translate(0.0273438 24.0115) rotate(-90)"/>
</clipPath>
</defs>
</svg>
