<svg width="25" height="25" viewBox="0 0 25 25" fill="none" xmlns="http://www.w3.org/2000/svg">
<g clip-path="url(#clip0)">
<path fill-rule="evenodd" clip-rule="evenodd" d="M12.0273 24.0115C8.84474 24.0115 5.7925 22.7472 3.54206 20.4968C1.29163 18.2463 0.0273431 15.1941 0.0273432 12.0115C0.0273434 8.82888 1.29163 5.77663 3.54206 3.52619C5.7925 1.27576 8.84475 0.0114739 12.0273 0.0114741C15.2099 0.0114742 18.2622 1.27576 20.5126 3.52619C22.7631 5.77663 24.0273 8.82888 24.0273 12.0115C24.0273 15.1941 22.7631 18.2463 20.5126 20.4968C18.2622 22.7472 15.2099 24.0115 12.0273 24.0115ZM8.05834 12.5425C7.91751 12.6833 7.72651 12.7624 7.52734 12.7624C7.32818 12.7624 7.13717 12.6833 6.99634 12.5425C6.85551 12.4016 6.7764 12.2106 6.7764 12.0115C6.7764 11.8123 6.85551 11.6213 6.99634 11.4805L11.4963 6.98047C11.566 6.91063 11.6488 6.85521 11.7399 6.81741C11.831 6.7796 11.9287 6.76013 12.0273 6.76013C12.126 6.76013 12.2237 6.7796 12.3148 6.81741C12.4059 6.85521 12.4887 6.91063 12.5583 6.98047L17.0583 11.4805C17.1281 11.5502 17.1834 11.633 17.2211 11.7241C17.2589 11.8152 17.2783 11.9129 17.2783 12.0115C17.2783 12.1101 17.2589 12.2077 17.2211 12.2988C17.1834 12.39 17.1281 12.4727 17.0583 12.5425C16.9886 12.6122 16.9058 12.6675 16.8147 12.7053C16.7236 12.743 16.626 12.7624 16.5273 12.7624C16.4287 12.7624 16.3311 12.743 16.24 12.7053C16.1489 12.6675 16.0661 12.6122 15.9963 12.5425L12.7773 9.32197L12.7773 16.5115C12.7773 16.7104 12.6983 16.9012 12.5577 17.0418C12.417 17.1825 12.2263 17.2615 12.0273 17.2615C11.8284 17.2615 11.6377 17.1825 11.497 17.0418C11.3564 16.9012 11.2773 16.7104 11.2773 16.5115L11.2773 9.32197L8.05834 12.5425Z" fill="#FFAC00"/>
</g>
<defs>
<clipPath id="clip0">
<rect width="24" height="24" fill="white" transform="translate(24.0273 0.0114746) rotate(90)"/>
</clipPath>
</defs>
</svg>
