<svg width="25" height="25" viewBox="0 0 25 25" fill="none" xmlns="http://www.w3.org/2000/svg">
<g clip-path="url(#clip0)">
<path fill-rule="evenodd" clip-rule="evenodd" d="M0.494142 12.0114C0.494142 8.82884 1.75842 5.7766 4.00886 3.52616C6.2593 1.27572 9.31154 0.0114428 12.4941 0.011443C15.6767 0.0114433 18.729 1.27573 20.9794 3.52616C23.2299 5.7766 24.4941 8.82885 24.4941 12.0114C24.4941 15.194 23.2299 18.2463 20.9794 20.4967C18.729 22.7472 15.6767 24.0114 12.4941 24.0114C9.31154 24.0114 6.25929 22.7472 4.00886 20.4967C1.75842 18.2463 0.494141 15.194 0.494142 12.0114ZM11.9631 8.04244C11.8223 7.90161 11.7432 7.71061 11.7432 7.51144C11.7432 7.31228 11.8223 7.12127 11.9631 6.98044C12.104 6.83961 12.295 6.7605 12.4941 6.7605C12.6933 6.7605 12.8843 6.83961 13.0251 6.98044L17.5251 11.4804C17.595 11.5501 17.6504 11.6329 17.6882 11.724C17.726 11.8151 17.7455 11.9128 17.7455 12.0114C17.7455 12.1101 17.726 12.2078 17.6882 12.2989C17.6504 12.39 17.595 12.4728 17.5251 12.5424L13.0251 17.0424C12.9554 17.1122 12.8726 17.1675 12.7815 17.2052C12.6904 17.243 12.5928 17.2624 12.4941 17.2624C12.3955 17.2624 12.2979 17.243 12.2068 17.2052C12.1157 17.1675 12.0329 17.1122 11.9631 17.0424C11.8934 16.9727 11.8381 16.8899 11.8004 16.7988C11.7626 16.7077 11.7432 16.6101 11.7432 16.5114C11.7432 16.4128 11.7626 16.3152 11.8004 16.2241C11.8381 16.133 11.8934 16.0502 11.9631 15.9804L15.1836 12.7614L7.99414 12.7614C7.79523 12.7614 7.60446 12.6824 7.46381 12.5418C7.32316 12.4011 7.24414 12.2104 7.24414 12.0114C7.24414 11.8125 7.32316 11.6218 7.46381 11.4811C7.60446 11.3405 7.79523 11.2614 7.99414 11.2614L15.1836 11.2614L11.9631 8.04244Z" fill="#FFC000"/>
</g>
<defs>
<clipPath id="clip0">
<rect width="24" height="24" fill="white" transform="translate(24.4941 24.0114) rotate(-180)"/>
</clipPath>
</defs>
</svg>
