<svg width="29" height="29" viewBox="0 0 29 29" fill="none" xmlns="http://www.w3.org/2000/svg">
<path fill-rule="evenodd" clip-rule="evenodd" d="M14.2311 28.4011C6.39264 28.4011 0.0383301 22.0467 0.0383301 14.2084C0.0383301 6.36993 6.39264 0.015625 14.2311 0.015625C22.0695 0.015625 28.4238 6.36993 28.4238 14.2084C28.4238 22.0467 22.0695 28.4011 14.2311 28.4011ZM26.9851 14.918C26.6169 21.6425 21.0476 26.9818 14.2311 26.9818C7.41461 26.9818 1.84521 21.6425 1.47698 14.918H4.11875C4.28601 14.918 4.4479 14.859 4.57585 14.7512L7.30655 12.4516L10.2501 17.4093C10.5511 17.9161 11.3031 17.8563 11.5201 17.3081L14.1351 10.7017L16.9216 20.0874C17.1133 20.7336 18.0136 20.7734 18.2617 20.1466L21.2697 12.5477L23.8863 14.7512C24.0143 14.859 24.1761 14.918 24.3434 14.918H26.9851ZM26.9851 13.4987H24.6024L21.4298 10.827C21.0589 10.5148 20.4912 10.6579 20.3128 11.1086L17.6978 17.7151L14.9113 8.32931C14.7196 7.68309 13.8193 7.64332 13.5713 8.2701L10.7325 15.4417L8.09971 11.0075C7.87599 10.6307 7.36761 10.5447 7.03242 10.827L3.85976 13.4987H1.47698C1.84521 6.77423 7.41461 1.4349 14.2311 1.4349C21.0476 1.4349 26.6169 6.77423 26.9851 13.4987Z" fill="#DDDDDD"/>
</svg>
