<svg width="25" height="25" viewBox="0 0 25 25" fill="none" xmlns="http://www.w3.org/2000/svg">
<g clip-path="url(#clip0)">
<path fill-rule="evenodd" clip-rule="evenodd" d="M24.4941 12.0114C24.4941 15.194 23.2299 18.2463 20.9794 20.4967C18.729 22.7472 15.6767 24.0114 12.4941 24.0114C9.31154 24.0114 6.2593 22.7472 4.00886 20.4967C1.75842 18.2463 0.494141 15.194 0.494141 12.0114C0.494141 8.82885 1.75842 5.7766 4.00886 3.52616C6.2593 1.27573 9.31154 0.0114441 12.4941 0.0114441C15.6767 0.0114441 18.729 1.27573 20.9794 3.52616C23.2299 5.7766 24.4941 8.82885 24.4941 12.0114ZM13.0251 15.9804C13.166 16.1213 13.2451 16.3123 13.2451 16.5114C13.2451 16.7106 13.166 16.9016 13.0251 17.0424C12.8843 17.1833 12.6933 17.2624 12.4941 17.2624C12.295 17.2624 12.104 17.1833 11.9631 17.0424L7.46314 12.5424C7.3933 12.4728 7.33788 12.39 7.30007 12.2989C7.26226 12.2078 7.2428 12.1101 7.2428 12.0114C7.2428 11.9128 7.26226 11.8151 7.30007 11.724C7.33788 11.6329 7.3933 11.5501 7.46314 11.4804L11.9631 6.98044C12.0329 6.91071 12.1157 6.8554 12.2068 6.81766C12.2979 6.77992 12.3955 6.7605 12.4941 6.7605C12.5928 6.7605 12.6904 6.77992 12.7815 6.81766C12.8726 6.8554 12.9554 6.91071 13.0251 6.98044C13.0949 7.05018 13.1502 7.13296 13.1879 7.22407C13.2257 7.31518 13.2451 7.41283 13.2451 7.51144C13.2451 7.61006 13.2257 7.70771 13.1879 7.79882C13.1502 7.88993 13.0949 7.97271 13.0251 8.04244L9.80464 11.2614H16.9941C17.1931 11.2614 17.3838 11.3405 17.5245 11.4811C17.6651 11.6218 17.7441 11.8125 17.7441 12.0114C17.7441 12.2104 17.6651 12.4011 17.5245 12.5418C17.3838 12.6824 17.1931 12.7614 16.9941 12.7614H9.80464L13.0251 15.9804Z" fill="#FFC000"/>
</g>
<defs>
<clipPath id="clip0">
<rect width="24" height="24" fill="white" transform="translate(0.494141 0.0114441)"/>
</clipPath>
</defs>
</svg>
