<svg width="24" height="26" viewBox="0 0 24 26" fill="none" xmlns="http://www.w3.org/2000/svg">
<path d="M20.2245 2.66888H17.7245V1.41888C17.7245 1.08736 17.5928 0.769421 17.3584 0.535001C17.124 0.30058 16.806 0.168884 16.4745 0.168884C16.143 0.168884 15.825 0.30058 15.5906 0.535001C15.3562 0.769421 15.2245 1.08736 15.2245 1.41888V2.66888H7.72449V1.41888C7.72449 1.08736 7.59279 0.769421 7.35837 0.535001C7.12395 0.30058 6.80601 0.168884 6.47449 0.168884C6.14297 0.168884 5.82502 0.30058 5.5906 0.535001C5.35618 0.769421 5.22449 1.08736 5.22449 1.41888V2.66888H2.72449C1.72993 2.66888 0.776098 3.06397 0.072837 3.76723C-0.630424 4.4705 -1.02551 5.42432 -1.02551 6.41888V21.4189C-1.02551 22.4134 -0.630424 23.3673 0.072837 24.0705C0.776098 24.7738 1.72993 25.1689 2.72449 25.1689H20.2245C21.219 25.1689 22.1729 24.7738 22.8761 24.0705C23.5794 23.3673 23.9745 22.4134 23.9745 21.4189V6.41888C23.9745 5.42432 23.5794 4.4705 22.8761 3.76723C22.1729 3.06397 21.219 2.66888 20.2245 2.66888ZM21.4745 21.4189C21.4745 21.7504 21.3428 22.0683 21.1084 22.3028C20.874 22.5372 20.556 22.6689 20.2245 22.6689H2.72449C2.39297 22.6689 2.07502 22.5372 1.8406 22.3028C1.60618 22.0683 1.47449 21.7504 1.47449 21.4189V12.6689H21.4745V21.4189ZM21.4745 10.1689H1.47449V6.41888C1.47449 6.08736 1.60618 5.76942 1.8406 5.535C2.07502 5.30058 2.39297 5.16888 2.72449 5.16888H5.22449V6.41888C5.22449 6.7504 5.35618 7.06835 5.5906 7.30277C5.82502 7.53719 6.14297 7.66888 6.47449 7.66888C6.80601 7.66888 7.12395 7.53719 7.35837 7.30277C7.59279 7.06835 7.72449 6.7504 7.72449 6.41888V5.16888H15.2245V6.41888C15.2245 6.7504 15.3562 7.06835 15.5906 7.30277C15.825 7.53719 16.143 7.66888 16.4745 7.66888C16.806 7.66888 17.124 7.53719 17.3584 7.30277C17.5928 7.06835 17.7245 6.7504 17.7245 6.41888V5.16888H20.2245C20.556 5.16888 20.874 5.30058 21.1084 5.535C21.3428 5.76942 21.4745 6.08736 21.4745 6.41888V10.1689Z" fill="#DDDDDD"/>
</svg>
