<svg width="21" height="21" viewBox="0 0 21 21" fill="none" xmlns="http://www.w3.org/2000/svg">
<path d="M7.40781 2.70346L8.30447 2.41679C9.14614 2.14846 10.0436 2.58263 10.4045 3.43096L11.1203 5.12096C11.432 5.85679 11.2595 6.72263 10.692 7.26096L9.11364 8.75929C9.21031 9.65596 9.51197 10.5385 10.017 11.4068C10.4968 12.247 11.1403 12.9823 11.9095 13.5693L13.8053 12.936C14.5245 12.6968 15.307 12.9726 15.747 13.6201L16.7745 15.1285C17.287 15.8818 17.1953 16.9201 16.5595 17.5585L15.8778 18.2426C15.1995 18.9235 14.2303 19.171 13.3345 18.891C11.2186 18.231 9.27364 16.2718 7.49864 13.0135C5.72114 9.75013 5.09364 6.98013 5.61697 4.70679C5.83697 3.75013 6.51781 2.98763 7.40781 2.70346Z" fill="#FFAC00"/>
</svg>
