<svg width="30" height="26" viewBox="0 0 30 26" fill="none" xmlns="http://www.w3.org/2000/svg">
<path d="M14.8914 0.242189C12.0218 0.241029 9.21635 1.09115 6.83004 2.68497C4.44373 4.27879 2.58385 6.54468 1.48575 9.19589C0.387653 11.8471 0.100696 14.7645 0.661194 17.5788C1.22169 20.3932 2.60445 22.978 4.63449 25.0062C4.75832 25.1302 4.90538 25.2285 5.06725 25.2957C5.22912 25.3628 5.40262 25.3973 5.57785 25.3973C5.75308 25.3973 5.92658 25.3628 6.08845 25.2957C6.25032 25.2285 6.39738 25.1302 6.52121 25.0062L6.54788 24.9729L6.58121 24.9462L9.41129 22.1161C9.53518 21.9923 9.63345 21.8452 9.70049 21.6833C9.76754 21.5215 9.80204 21.348 9.80204 21.1728C9.80204 20.9976 9.76754 20.8241 9.70049 20.6622C9.63345 20.5004 9.53518 20.3533 9.41129 20.2294C9.28741 20.1055 9.14034 20.0073 8.97848 19.9402C8.81661 19.8732 8.64313 19.8387 8.46793 19.8387C8.29273 19.8387 8.11925 19.8732 7.95739 19.9402C7.79553 20.0073 7.64846 20.1055 7.52457 20.2294L5.63118 22.1228C4.24589 20.3852 3.38033 18.2912 3.13445 16.0826H5.80119C6.15482 16.0826 6.49397 15.9422 6.74403 15.6921C6.99408 15.442 7.13456 15.1029 7.13456 14.7493C7.13456 14.3956 6.99408 14.0565 6.74403 13.8064C6.49397 13.5564 6.15482 13.4159 5.80119 13.4159H3.13445C3.38033 11.2073 4.24589 9.11333 5.63118 7.37572L7.52457 9.26911C7.77477 9.51931 8.1141 9.65987 8.46793 9.65987C8.82176 9.65987 9.1611 9.51931 9.41129 9.26911C9.66149 9.01892 9.80204 8.67958 9.80204 8.32575C9.80204 7.97192 9.66149 7.63259 9.41129 7.38239L7.51791 5.48567C9.25334 4.09616 11.3483 3.22905 13.5581 2.9856V5.65234C13.5581 6.00598 13.6986 6.34512 13.9486 6.59518C14.1987 6.84523 14.5378 6.98571 14.8914 6.98571C15.2451 6.98571 15.5842 6.84523 15.8343 6.59518C16.0843 6.34512 16.2248 6.00598 16.2248 5.65234V2.9856C18.4346 3.22905 20.5296 4.09616 22.265 5.48567L20.3716 7.37906C20.1214 7.62925 19.9809 7.96859 19.9809 8.32242C19.9809 8.67625 20.1214 9.01558 20.3716 9.26578C20.6218 9.51597 20.9611 9.65653 21.315 9.65653C21.6688 9.65653 22.0081 9.51597 22.2583 9.26578L24.1517 7.37239C25.5424 9.10745 26.4107 11.2024 26.6551 13.4126H23.9884C23.6347 13.4126 23.2956 13.553 23.0455 13.8031C22.7955 14.0532 22.655 14.3923 22.655 14.7459C22.655 15.0996 22.7955 15.4387 23.0455 15.6888C23.2956 15.9388 23.6347 16.0793 23.9884 16.0793H26.6551C26.4107 18.2895 25.5424 20.3844 24.1517 22.1195L22.2583 20.2294C22.0081 19.9792 21.6688 19.8387 21.315 19.8387C20.9611 19.8387 20.6218 19.9792 20.3716 20.2294C20.1214 20.4796 19.9809 20.819 19.9809 21.1728C19.9809 21.5266 20.1214 21.866 20.3716 22.1161L23.2017 24.9462L23.235 24.9729L23.2617 25.0062C23.3855 25.1302 23.5326 25.2285 23.6944 25.2957C23.8563 25.3628 24.0298 25.3973 24.205 25.3973C24.3803 25.3973 24.5538 25.3628 24.7157 25.2957C24.8775 25.2285 25.0246 25.1302 25.1484 25.0062C27.1784 22.978 28.5612 20.3932 29.1217 17.5788C29.6822 14.7645 29.3952 11.8471 28.2971 9.19589C27.199 6.54468 25.3392 4.27879 22.9529 2.68497C20.5665 1.09115 17.7611 0.241029 14.8914 0.242189Z" fill="#DDDDDD"/>
</svg>
