<svg width="32" height="34" viewBox="0 0 32 34" fill="none" xmlns="http://www.w3.org/2000/svg">
<path d="M24.8985 2.04933H23.8542C23.5671 2.04933 23.3321 2.2843 23.3321 2.57148C23.3321 2.85867 23.5671 3.09364 23.8542 3.09364H24.8985C25.1857 3.09364 25.4207 2.85867 25.4207 2.57148C25.4207 2.2843 25.1857 2.04933 24.8985 2.04933Z" fill="#DDDDDD"/>
<path d="M21.7657 2.04933H20.7214C20.4342 2.04933 20.1992 2.2843 20.1992 2.57148C20.1992 2.85867 20.4342 3.09364 20.7214 3.09364H21.7657C22.0529 3.09364 22.2878 2.85867 22.2878 2.57148C22.2878 2.2843 22.0529 2.04933 21.7657 2.04933Z" fill="#DDDDDD"/>
<path d="M28.6841 19.3065C28.397 19.3065 28.162 19.5414 28.162 19.8286V25.5462H3.62083V19.8286C3.62083 19.5414 3.38586 19.3065 3.09868 19.3065C2.81149 19.3065 2.57652 19.5414 2.57652 19.8286V25.5462H1.53222V12.0225H3.07257C3.35975 12.0225 3.59472 11.7875 3.59472 11.5003C3.59472 11.2131 3.35975 10.9781 3.07257 10.9781H1.53222C0.957852 10.9781 0.487915 11.4481 0.487915 12.0225V29.6973C0.487915 30.2717 0.957852 30.7416 1.53222 30.7416H13.0196V32.3864H10.6177C10.3305 32.3864 10.0955 32.6214 10.0955 32.9085C10.0955 33.1957 10.3305 33.4307 10.6177 33.4307H21.139C21.4262 33.4307 21.6612 33.1957 21.6612 32.9085C21.6612 32.6214 21.4262 32.3864 21.139 32.3864H18.7632V30.7416H30.2506C30.825 30.7416 31.2949 30.2717 31.2949 29.6973V12.0225C31.2949 11.4481 30.825 10.9781 30.2506 10.9781H28.658C28.3709 10.9781 28.1359 11.2131 28.1359 11.5003C28.1359 11.7875 28.3709 12.0225 28.658 12.0225H30.2506V25.5462H29.2063V19.8286C29.2063 19.5414 28.9713 19.3065 28.6841 19.3065ZM17.7189 32.3081H14.0639V30.7416H17.7189V32.3081ZM30.2506 26.5905V29.7234H1.53222V26.5905H30.2506Z" fill="#DDDDDD"/>
<path d="M27.6398 28.6791H28.6841C28.9713 28.6791 29.2063 28.4441 29.2063 28.1569C29.2063 27.8698 28.9713 27.6348 28.6841 27.6348H27.6398C27.3526 27.6348 27.1177 27.8698 27.1177 28.1569C27.1177 28.4441 27.3526 28.6791 27.6398 28.6791Z" fill="#DDDDDD"/>
<path d="M26.3345 0.0129395H5.44836C4.87399 0.0129395 4.40405 0.482877 4.40405 1.05724V23.2487C4.40405 23.8231 4.87399 24.293 5.44836 24.293H26.3345C26.9088 24.293 27.3788 23.8231 27.3788 23.2487V1.05724C27.3788 0.482877 26.9088 0.0129395 26.3345 0.0129395ZM5.44836 1.05724H26.3345V4.19016H5.44836V1.05724ZM5.44836 23.2487V5.23446H26.3345V23.2487H5.44836Z" fill="#DDDDDD"/>
<path d="M18.0062 16.8001C17.7973 16.6696 17.5102 16.7218 17.3535 16.9046C16.9619 17.3484 16.3875 17.5312 15.3693 17.5312C14.3511 17.5312 13.7768 17.3484 13.3852 16.9046C13.2285 16.7218 12.9413 16.6696 12.7325 16.8001C10.9833 17.8444 10.0173 19.4892 10.0173 21.4212C10.0173 21.7084 10.2522 21.9433 10.5394 21.9433H20.1992C20.4864 21.9433 20.7214 21.7084 20.7214 21.4212C20.7214 19.4892 19.7554 17.8444 18.0062 16.8001ZM11.0877 20.899C11.2182 19.672 11.897 18.5755 12.9413 17.8967C13.6723 18.471 14.6122 18.5755 15.3693 18.5755C16.1265 18.5755 17.0663 18.4971 17.7973 17.8967C18.8155 18.5755 19.4943 19.672 19.651 20.899H11.0877Z" fill="#DDDDDD"/>
<path d="M12.9935 15.3642C14.1161 16.6696 16.1003 16.8262 17.4318 15.7036C18.7632 14.581 18.8938 12.5968 17.7712 11.2653C16.6485 9.95993 14.6643 9.80329 13.3329 10.9259C12.3147 11.7875 11.9753 13.2234 12.4713 14.4504L9.59947 16.2519C9.3645 16.4085 9.28618 16.7218 9.44282 16.9829C9.59947 17.244 9.91276 17.2962 10.1738 17.1395L12.9935 15.3642ZM15.3693 11.2392C16.518 11.2392 17.4579 12.1791 17.4579 13.3278C17.4579 14.4766 16.518 15.4164 15.3693 15.4164C14.2205 15.4164 13.2806 14.4766 13.2806 13.3278C13.2806 12.1791 14.2205 11.2392 15.3693 11.2392Z" fill="#DDDDDD"/>
</svg>
