<svg width="21" height="21" viewBox="0 0 21 21" fill="none" xmlns="http://www.w3.org/2000/svg">
<path d="M10.9311 2.28909C14.7775 2.28909 17.8954 5.40695 17.8954 9.25337C17.8954 12.1962 15.8275 15.4034 11.7454 18.9091C11.5184 19.1041 11.229 19.2112 10.9297 19.2109C10.6305 19.2106 10.3413 19.103 10.1147 18.9077L9.84465 18.6734C5.94323 15.2591 3.9668 12.1305 3.9668 9.25337C3.9668 5.40695 7.08465 2.28909 10.9311 2.28909ZM10.9311 6.5748C10.2207 6.5748 9.53938 6.85701 9.03705 7.35934C8.53472 7.86167 8.25251 8.54297 8.25251 9.25337C8.25251 9.96378 8.53472 10.6451 9.03705 11.1474C9.53938 11.6497 10.2207 11.9319 10.9311 11.9319C11.6415 11.9319 12.3228 11.6497 12.8251 11.1474C13.3274 10.6451 13.6097 9.96378 13.6097 9.25337C13.6097 8.54297 13.3274 7.86167 12.8251 7.35934C12.3228 6.85701 11.6415 6.5748 10.9311 6.5748Z" fill="#FFAC00"/>
</svg>
