<svg width="100" height="110" viewBox="0 0 100 110" fill="none" xmlns="http://www.w3.org/2000/svg">
<path d="M27.5437 3.79178V63.1619" stroke="#FABA44" stroke-width="3" stroke-linecap="round"/>
<path d="M16.1011 15.0728L27.451 2.67856L38.2473 15.0728" stroke="#FABA44" stroke-width="3" stroke-linecap="round" stroke-linejoin="round"/>
<path d="M43.9841 63.1619V30.2361C43.9841 23.064 54.5238 21.7288 58.6209 21.7288C62.7179 21.7288 73.9354 23.3362 73.9416 30.2361C73.9479 37.1361 73.9416 63.1614 73.9416 63.1614L43.9841 63.1619Z" stroke="#FABA44" stroke-width="3" stroke-linejoin="round"/>
<path d="M58.9324 15.0713C62.2438 15.0713 64.9283 12.2701 64.9283 8.81471C64.9283 5.3593 62.2438 2.55814 58.9324 2.55814C55.621 2.55814 52.9365 5.3593 52.9365 8.81471C52.9365 12.2701 55.621 15.0713 58.9324 15.0713Z" stroke="#FABA44" stroke-width="3"/>
<path d="M0.852295 108.62V105.394C1.22161 105.72 1.66152 106.013 2.17204 106.274C2.69342 106.534 3.23653 106.757 3.80136 106.942C4.37705 107.115 4.95274 107.251 5.52843 107.349C6.10412 107.447 6.63637 107.496 7.12516 107.496C8.80879 107.496 10.0634 107.186 10.8889 106.567C11.7253 105.937 12.1435 105.035 12.1435 103.862C12.1435 103.232 12.0022 102.684 11.7198 102.217C11.4483 101.75 11.0681 101.326 10.5793 100.946C10.0905 100.555 9.5094 100.185 8.83594 99.8378C8.17336 99.4794 7.45646 99.1046 6.68525 98.7136C5.87059 98.3008 5.11024 97.8826 4.4042 97.459C3.69817 97.0354 3.08446 96.5683 2.56308 96.0578C2.0417 95.5473 1.62894 94.9716 1.3248 94.3307C1.03152 93.679 0.884881 92.9187 0.884881 92.0497C0.884881 90.9852 1.11842 90.0619 1.58549 89.2799C2.05256 88.4869 2.66627 87.8352 3.42661 87.3247C4.18696 86.8142 5.0505 86.434 6.01723 86.1842C6.99482 85.9343 7.9887 85.8094 8.99888 85.8094C11.3016 85.8094 12.9798 86.0864 14.0335 86.6404V89.7198C12.654 88.7639 10.8835 88.286 8.72189 88.286C8.12448 88.286 7.52706 88.3512 6.92964 88.4815C6.33223 88.601 5.79999 88.8019 5.33291 89.0843C4.86584 89.3668 4.48567 89.7306 4.19239 90.176C3.89912 90.6213 3.75248 91.1644 3.75248 91.8053C3.75248 92.4027 3.8611 92.9187 4.07834 93.3532C4.30645 93.7876 4.63774 94.1841 5.07222 94.5426C5.50671 94.901 6.03352 95.2486 6.65266 95.5853C7.28266 95.922 8.00499 96.2913 8.81965 96.6932C9.65603 97.106 10.449 97.5405 11.1985 97.9967C11.9479 98.4529 12.6051 98.958 13.1699 99.512C13.7348 100.066 14.1801 100.68 14.506 101.353C14.8427 102.027 15.0111 102.798 15.0111 103.667C15.0111 104.818 14.7829 105.796 14.3267 106.599C13.8814 107.392 13.2731 108.039 12.5019 108.538C11.7416 109.038 10.8617 109.396 9.86241 109.614C8.8631 109.842 7.80948 109.956 6.70154 109.956C6.33223 109.956 5.87602 109.923 5.33291 109.858C4.78981 109.804 4.23584 109.717 3.67101 109.597C3.10618 109.489 2.56851 109.353 2.05799 109.19C1.55833 109.016 1.15643 108.826 0.852295 108.62Z" fill="white"/>
<path d="M33.4875 88.677H26.7421V109.565H24.0049V88.677H17.2758V86.2005H33.4875V88.677Z" fill="white"/>
<path d="M53.9191 109.565H50.6605L46.7501 103.015C46.3917 102.407 46.0441 101.891 45.7074 101.467C45.3706 101.033 45.0231 100.68 44.6646 100.408C44.317 100.137 43.9368 99.941 43.5241 99.8215C43.1222 99.6912 42.666 99.626 42.1555 99.626H39.907V109.565H37.1698V86.2005H44.1432C45.1643 86.2005 46.1038 86.3308 46.9619 86.5915C47.8309 86.8413 48.5804 87.2269 49.2104 87.7483C49.8513 88.2697 50.3509 88.9214 50.7094 89.7035C51.0678 90.4747 51.247 91.3817 51.247 92.4244C51.247 93.2391 51.1221 93.9886 50.8723 94.6729C50.6333 95.3463 50.2858 95.9492 49.8295 96.4814C49.3842 97.0137 48.8411 97.4699 48.2002 97.8501C47.5702 98.2194 46.8588 98.5072 46.0658 98.7136V98.7788C46.4569 98.9526 46.7936 99.1535 47.076 99.3816C47.3693 99.5989 47.6463 99.8595 47.9069 100.164C48.1676 100.468 48.4229 100.815 48.6727 101.206C48.9334 101.587 49.2213 102.032 49.5363 102.542L53.9191 109.565ZM39.907 88.677V97.1495H43.6218C44.3062 97.1495 44.9362 97.0463 45.5119 96.8399C46.0984 96.6335 46.6035 96.3402 47.0271 95.9601C47.4507 95.569 47.782 95.0965 48.021 94.5426C48.26 93.9777 48.3795 93.3477 48.3795 92.6525C48.3795 91.4034 47.9721 90.4312 47.1575 89.7361C46.3537 89.03 45.186 88.677 43.6544 88.677H39.907Z" fill="white"/>
<path d="M59.8824 109.565H57.1452V86.2005H59.8824V109.565Z" fill="white"/>
<path d="M83.4098 86.2005L74.7581 109.565H71.7438L63.2714 86.2005H66.3182L72.7866 104.726C72.993 105.323 73.1505 106.013 73.2591 106.795H73.3243C73.4112 106.143 73.5904 105.443 73.862 104.693L80.4607 86.2005H83.4098Z" fill="white"/>
<path d="M99.1489 109.565H86.7661V86.2005H98.6276V88.677H89.5034V96.4488H97.9433V98.9091H89.5034V107.088H99.1489V109.565Z" fill="white"/>
</svg>
