<svg width="21" height="21" viewBox="0 0 21 21" fill="none" xmlns="http://www.w3.org/2000/svg">
<path d="M5.93066 4.44293C5.26762 4.44293 4.63174 4.70632 4.1629 5.17517C3.69406 5.64401 3.43066 6.27989 3.43066 6.94293V7.19418L10.9307 11.2329L18.4307 7.19543V6.94293C18.4307 6.27989 18.1673 5.64401 17.6984 5.17517C17.2296 4.70632 16.5937 4.44293 15.9307 4.44293H5.93066Z" fill="#FFAC00"/>
<path d="M18.4307 8.61418L11.2269 12.4929C11.1359 12.5419 11.0341 12.5676 10.9307 12.5676C10.8273 12.5676 10.7255 12.5419 10.6344 12.4929L3.43066 8.61418V14.4429C3.43066 15.106 3.69406 15.7419 4.1629 16.2107C4.63174 16.6795 5.26762 16.9429 5.93066 16.9429H15.9307C16.5937 16.9429 17.2296 16.6795 17.6984 16.2107C18.1673 15.7419 18.4307 15.106 18.4307 14.4429V8.61418Z" fill="#FFAC00"/>
</svg>
