<svg width="82" height="83" viewBox="0 0 82 83" fill="none" xmlns="http://www.w3.org/2000/svg">
<path d="M20.4984 38.1626C20.4856 38.1626 20.4728 38.1626 20.4574 38.1626C18.8404 38.1626 17.5283 39.4721 17.5283 41.0917C17.5283 42.7113 18.8378 44.0209 20.4574 44.0209C20.4728 44.0209 20.4856 44.0209 20.501 44.0209H61.4984C61.5113 44.0209 61.5241 44.0209 61.5394 44.0209C63.1565 44.0209 64.4686 42.7113 64.4686 41.0917C64.4686 39.4721 63.159 38.1626 61.5394 38.1626C61.5241 38.1626 61.5113 38.1626 61.4959 38.1626H20.4984Z" fill="#FFC150"/>
<path d="M43.9295 20.5905C43.9295 20.5777 43.9295 20.5649 43.9295 20.5495C43.9295 18.9325 42.62 17.6204 41.0004 17.6204C39.3808 17.6204 38.0713 18.9299 38.0713 20.5495C38.0713 20.5649 38.0713 20.5777 38.0713 20.5931V20.5905V61.5905C38.0713 61.6033 38.0713 61.6161 38.0713 61.6315C38.0713 63.2485 39.3808 64.5606 41.0004 64.5606C42.62 64.5606 43.9295 63.2511 43.9295 61.6315C43.9295 61.6161 43.9295 61.6033 43.9295 61.5879V61.5905V20.5905Z" fill="#FFC150"/>
<path d="M41 0.0892029C18.3896 0.0892029 0 18.4814 0 41.0892C0 63.697 18.3922 82.0892 41 82.0892C63.6104 82.0892 82 63.697 82 41.0892C82 18.4814 63.6078 0.0892029 41 0.0892029ZM41 5.94744C60.4455 5.94744 76.1443 21.6489 76.1443 41.0918C76.1443 60.5347 60.4455 76.2361 41 76.2361C21.5545 76.2361 5.85568 60.5372 5.85568 41.0918C5.85568 21.6463 21.5545 5.94744 41 5.94744Z" fill="#FFC150"/>
</svg>
