<svg width="36" height="36" viewBox="0 0 36 36" fill="none" xmlns="http://www.w3.org/2000/svg">
<path d="M25.6312 5.30856C27.0733 5.30856 28.4563 5.88143 29.4761 6.90116C30.4958 7.92089 31.0687 9.30394 31.0687 10.7461V14.5675C28.9276 12.7964 26.2348 11.8293 23.4562 11.8335H28.8937V10.7461C28.8937 9.88078 28.5499 9.05095 27.9381 8.43912C27.3263 7.82728 26.4964 7.48355 25.6312 7.48355H10.4062C9.54092 7.48355 8.71109 7.82728 8.09925 8.43912C7.48741 9.05095 7.14369 9.88078 7.14369 10.7461V11.8335H23.4562C20.8962 11.8335 18.5233 12.6383 16.5767 14.0085H7.14369V25.971C7.14369 26.8363 7.48741 27.6661 8.09925 28.278C8.71109 28.8898 9.54092 29.2335 10.4062 29.2335H12.7987C13.1967 30.0122 13.6774 30.7408 14.2277 31.4085H10.4062C8.96407 31.4085 7.58102 30.8357 6.56129 29.8159C5.54157 28.7962 4.96869 27.4132 4.96869 25.971V10.7461C4.96869 9.30394 5.54157 7.92089 6.56129 6.90116C7.58102 5.88143 8.96407 5.30856 10.4062 5.30856H25.6312Z" fill="#DDDDDD"/>
<path d="M33.2437 23.796C33.2437 25.0813 32.9905 26.3541 32.4987 27.5415C32.0068 28.729 31.2858 29.808 30.377 30.7168C29.4681 31.6257 28.3892 32.3466 27.2017 32.8385C26.0142 33.3304 24.7415 33.5835 23.4562 33.5835C22.1709 33.5835 20.8982 33.3304 19.7107 32.8385C18.5232 32.3466 17.4442 31.6257 16.5354 30.7168C15.6265 29.808 14.9056 28.729 14.4137 27.5415C13.9219 26.3541 13.6687 25.0813 13.6687 23.796C13.6687 21.2002 14.6999 18.7107 16.5354 16.8752C18.3709 15.0397 20.8604 14.0085 23.4562 14.0085C26.052 14.0085 28.5415 15.0397 30.377 16.8752C32.2125 18.7107 33.2437 21.2002 33.2437 23.796ZM23.4562 27.885C23.0957 27.885 22.7499 28.0283 22.495 28.2832C22.24 28.5381 22.0968 28.8839 22.0968 29.2444C22.0968 29.6049 22.24 29.9507 22.495 30.2056C22.7499 30.4606 23.0957 30.6038 23.4562 30.6038C23.8167 30.6038 24.1625 30.4606 24.4174 30.2056C24.6723 29.9507 24.8156 29.6049 24.8156 29.2444C24.8156 28.8839 24.6723 28.5381 24.4174 28.2832C24.1625 28.0283 23.8167 27.885 23.4562 27.885ZM23.4562 17.2776C21.1768 17.2776 19.402 19.0567 19.4259 21.5297C19.4288 21.8181 19.5461 22.0936 19.7521 22.2955C19.9581 22.4974 20.2359 22.6092 20.5243 22.6063C20.8127 22.6034 21.0882 22.4861 21.2901 22.2801C21.492 22.0741 21.6038 21.7964 21.6009 21.5079C21.5879 20.2486 22.3839 19.4526 23.4562 19.4526C24.4828 19.4526 25.3115 20.3052 25.3115 21.5188C25.3115 21.9582 25.1592 22.2039 24.5285 22.702L23.926 23.1696C22.8254 24.0483 22.3687 24.7291 22.3687 25.971C22.3682 26.2428 22.4695 26.5049 22.6525 26.7057C22.8356 26.9065 23.0873 27.0315 23.3579 27.0561C23.6286 27.0806 23.8986 27.003 24.1149 26.8384C24.3311 26.6738 24.4779 26.4342 24.5263 26.1668L24.5502 25.8275C24.5872 25.5056 24.7677 25.275 25.3028 24.8531L25.9052 24.3855C27.021 23.4937 27.4865 22.7934 27.4865 21.5188C27.4865 19.1176 25.6986 17.2776 23.4562 17.2776Z" fill="#DDDDDD"/>
</svg>
