<svg width="33" height="41" viewBox="0 0 33 41" fill="none" xmlns="http://www.w3.org/2000/svg">
<path d="M28.9662 22.2225H27.1431V18.3098C27.1431 15.477 24.9484 13.1561 22.1717 12.9458C23.3707 11.6065 24.114 9.8395 24.114 7.89722C24.114 3.71113 20.7132 0.317383 16.5341 0.317383C12.355 0.317383 8.95429 3.71113 8.95429 7.8902C8.95429 9.82548 9.69054 11.5925 10.8966 12.9388C8.11988 13.1491 5.92516 15.477 5.92516 18.3028V22.2155H4.10207C3.16248 22.2155 2.25795 22.6151 1.62688 23.3093C0.995815 24.0035 0.680281 24.9431 0.771436 25.8757L2.00552 38.7354H31.0627L32.2968 25.8757C32.388 24.9431 32.0724 24.0035 31.4414 23.3093C30.8103 22.6221 29.9058 22.2225 28.9662 22.2225ZM9.65548 7.8902C9.65548 4.09678 12.7407 1.01156 16.5341 1.01156C20.3275 1.01156 23.4128 4.09678 23.4128 7.8902C23.4128 9.93767 22.5082 11.7748 21.0778 13.0369C20.9516 13.1491 20.8184 13.2543 20.6851 13.3595C20.6501 13.3875 20.615 13.4156 20.58 13.4436C20.4467 13.5418 20.3135 13.6329 20.1733 13.7171C20.1312 13.7451 20.0891 13.7732 20.0401 13.7942C19.9068 13.8783 19.7666 13.9485 19.6264 14.0256C19.5703 14.0536 19.5212 14.0747 19.4651 14.1027C19.3319 14.1658 19.1916 14.2289 19.0514 14.285C18.9883 14.3131 18.9182 14.3341 18.8551 14.3551C18.7218 14.4042 18.5886 14.4463 18.4554 14.4884C18.3712 14.5094 18.2871 14.5304 18.2029 14.5515C18.0837 14.5795 17.9575 14.6146 17.8383 14.6356C17.7261 14.6567 17.6139 14.6707 17.4947 14.6847C17.3966 14.6987 17.2984 14.7198 17.2003 14.7268C16.9829 14.7478 16.7585 14.7618 16.5411 14.7618C16.3168 14.7618 16.0994 14.7478 15.882 14.7268C15.7839 14.7198 15.6857 14.6987 15.5875 14.6847C15.4753 14.6707 15.3561 14.6567 15.2439 14.6286C15.1177 14.6076 14.9985 14.5725 14.8793 14.5445C14.7952 14.5234 14.711 14.5024 14.6269 14.4814C14.4937 14.4393 14.3604 14.3972 14.2342 14.3481C14.1641 14.3271 14.101 14.2991 14.0309 14.278C13.8906 14.2219 13.7574 14.1658 13.6242 14.0957C13.5681 14.0677 13.512 14.0466 13.4629 14.0186C13.3227 13.9485 13.1895 13.8713 13.0492 13.7942C13.0072 13.7662 12.9581 13.7381 12.916 13.7101C12.7758 13.6259 12.6425 13.5348 12.5093 13.4366C12.4742 13.4085 12.4322 13.3805 12.3971 13.3525C12.2639 13.2473 12.1307 13.1421 12.0045 13.0299C10.56 11.7818 9.65548 9.94468 9.65548 7.8902ZM6.62635 18.3028C6.62635 15.7155 8.72991 13.6189 11.3103 13.6189H11.5767C11.5837 13.6259 11.5908 13.6329 11.5978 13.6329C11.731 13.7521 11.8782 13.8573 12.0185 13.9695C12.0605 14.0046 12.1096 14.0396 12.1517 14.0677C12.2849 14.1658 12.4252 14.257 12.5724 14.3411C12.6285 14.3762 12.6916 14.4112 12.7477 14.4463C12.8809 14.5234 13.0212 14.6006 13.1614 14.6707C13.2315 14.7057 13.3016 14.7408 13.3718 14.7759C13.505 14.839 13.6382 14.8951 13.7785 14.9512C13.8626 14.9862 13.9467 15.0143 14.0309 15.0423C14.1641 15.0914 14.2903 15.1335 14.4235 15.1685C14.5287 15.1966 14.6269 15.2246 14.7321 15.2457C14.8513 15.2737 14.9775 15.3088 15.0967 15.3298C15.2299 15.3578 15.3631 15.3719 15.4964 15.3929C15.5945 15.4069 15.6927 15.421 15.7979 15.435C16.0363 15.456 16.2817 15.47 16.5201 15.47C16.7655 15.47 17.0039 15.456 17.2423 15.435C17.3405 15.428 17.4457 15.4069 17.5438 15.3929C17.6771 15.3719 17.8103 15.3578 17.9435 15.3298C18.0697 15.3088 18.1889 15.2737 18.3151 15.2457C18.4203 15.2176 18.5185 15.1966 18.6237 15.1685C18.7569 15.1265 18.8901 15.0844 19.0233 15.0423C19.1075 15.0143 19.1916 14.9792 19.2758 14.9512C19.416 14.8951 19.5492 14.839 19.6895 14.7759C19.7596 14.7408 19.8297 14.7128 19.8998 14.6777C20.0401 14.6076 20.1803 14.5304 20.3205 14.4533C20.3766 14.4183 20.4327 14.3832 20.4888 14.3481C20.6291 14.257 20.7693 14.1728 20.9095 14.0747C20.9516 14.0396 20.9937 14.0116 21.0428 13.9765C21.19 13.8713 21.3302 13.7591 21.4635 13.6399C21.4705 13.6329 21.4775 13.6259 21.4845 13.6259H21.751C24.3383 13.6259 26.4349 15.7295 26.4349 18.3098V22.2225H6.62635V18.3028ZM30.4246 38.0412H2.6436L1.47262 25.8125C1.4025 25.0763 1.64792 24.333 2.14576 23.7861C2.6436 23.2392 3.35882 22.9237 4.10207 22.9237H5.92516H27.1431H28.9662C29.7094 22.9237 30.4246 23.2392 30.9225 23.7861C31.4203 24.333 31.6657 25.0763 31.5956 25.8125L30.4246 38.0412Z" fill="#FFAC00"/>
<path d="M16.5341 29.0661C15.7558 29.0661 15.1177 29.7041 15.1177 30.4825C15.1177 31.2608 15.7558 31.8989 16.5341 31.8989C17.3125 31.8989 17.9505 31.2608 17.9505 30.4825C17.9505 29.7041 17.3125 29.0661 16.5341 29.0661ZM16.5341 31.1977C16.1415 31.1977 15.8189 30.8751 15.8189 30.4825C15.8189 30.0898 16.1415 29.7672 16.5341 29.7672C16.9268 29.7672 17.2493 30.0898 17.2493 30.4825C17.2493 30.8751 16.9268 31.1977 16.5341 31.1977Z" fill="#FFAC00"/>
<path d="M31.7639 39.5839H1.29732V40.285H31.7639V39.5839Z" fill="#FFAC00"/>
</svg>
