<svg width="35" height="35" viewBox="0 0 35 35" fill="none" xmlns="http://www.w3.org/2000/svg">
<path d="M27.2277 17.2258H27.1748H21.3559H21.303C18.2348 17.2258 15.4841 19.0772 14.3732 21.8809H11.9927V20.1352C11.9927 19.8178 11.7282 19.5533 11.4108 19.5533H6.7028C6.3854 19.5533 6.12091 19.8178 6.12091 20.1352V21.8809H1.46577C1.14838 21.8809 0.883881 22.1454 0.883881 22.4628V29.4984C0.883881 29.8158 1.14838 30.0803 1.46577 30.0803V34.1535C1.46577 34.4709 1.73027 34.7354 2.04766 34.7354H16.066H34.1575C34.4749 34.7354 34.7394 34.4709 34.7394 34.1535V24.7375C34.7394 20.6113 31.3539 17.2258 27.2277 17.2258ZM25.9052 18.3896L24.2125 20.3997L22.5726 18.3896H25.9052ZM24.2125 24.2614L25.3233 29.8158L24.2125 30.9796L23.1016 29.8158L24.2125 24.2614ZM7.28469 20.7171H10.776V21.8809H7.28469V20.7171ZM2.04766 23.0447H6.7028H11.3579H14.6377H16.0131V28.8636H2.04766V23.0447ZM2.62956 30.0803H15.4841V33.5716H2.62956V30.0803ZM33.5756 33.5716H16.6479V30.0803C16.9653 30.0803 17.2298 29.8158 17.2298 29.4984V22.4628C17.2298 22.1454 16.9653 21.8809 16.6479 21.8809H15.5899C16.595 19.8178 18.7109 18.4425 21.0914 18.3896L23.6306 21.4577L21.9378 29.8687C21.8849 30.0803 21.9378 30.239 22.0965 30.3977L23.8422 32.1963C23.948 32.3021 24.1067 32.355 24.2654 32.355C24.4241 32.355 24.5828 32.3021 24.6886 32.1963L26.4342 30.3977C26.5929 30.239 26.6458 30.0803 26.5929 29.8687L24.9002 21.4577L27.4393 18.3896C30.8778 18.4954 33.5756 21.299 33.5756 24.7375V33.5716Z" fill="#FFAC00"/>
<path d="M24.2125 16.1678C28.3915 16.1678 31.777 12.7822 31.777 8.60318C31.777 4.42414 28.3915 0.985687 24.2125 0.985687C20.0334 0.985687 16.6479 4.37124 16.6479 8.55028C16.6479 12.7293 20.0334 16.1678 24.2125 16.1678ZM24.2125 2.14947C27.7567 2.14947 30.6133 5.00603 30.6133 8.55028C30.6133 12.0945 27.7567 14.9511 24.2125 14.9511C20.6682 14.9511 17.8116 12.0945 17.8116 8.55028C17.8116 5.00603 20.6682 2.14947 24.2125 2.14947Z" fill="#FFAC00"/>
</svg>
