<svg width="37" height="40" viewBox="0 0 37 40" fill="none" xmlns="http://www.w3.org/2000/svg">
<path d="M29.1322 2.84955H27.9096C27.5734 2.84955 27.2984 3.12462 27.2984 3.46082C27.2984 3.79703 27.5734 4.0721 27.9096 4.0721H29.1322C29.4684 4.0721 29.7435 3.79703 29.7435 3.46082C29.7435 3.12462 29.4684 2.84955 29.1322 2.84955Z" fill="#FFAC00"/>
<path d="M25.4646 2.84955H24.242C23.9058 2.84955 23.6308 3.12462 23.6308 3.46082C23.6308 3.79703 23.9058 4.0721 24.242 4.0721H25.4646C25.8008 4.0721 26.0759 3.79703 26.0759 3.46082C26.0759 3.12462 25.8008 2.84955 25.4646 2.84955Z" fill="#FFAC00"/>
<path d="M33.564 23.0522C33.2278 23.0522 32.9527 23.3273 32.9527 23.6635V30.357H4.22274V23.6635C4.22274 23.3273 3.94766 23.0522 3.61146 23.0522C3.27526 23.0522 3.00019 23.3273 3.00019 23.6635V30.357H1.77764V14.5249H3.5809C3.9171 14.5249 4.19217 14.2499 4.19217 13.9137C4.19217 13.5775 3.9171 13.3024 3.5809 13.3024H1.77764C1.10523 13.3024 0.555084 13.8525 0.555084 14.5249V35.2166C0.555084 35.889 1.10523 36.4392 1.77764 36.4392H15.2257V38.3647H12.4138C12.0776 38.3647 11.8026 38.6398 11.8026 38.976C11.8026 39.3122 12.0776 39.5872 12.4138 39.5872H24.731C25.0672 39.5872 25.3423 39.3122 25.3423 38.976C25.3423 38.6398 25.0672 38.3647 24.731 38.3647H21.9497V36.4392H35.3978C36.0702 36.4392 36.6203 35.889 36.6203 35.2166V14.5249C36.6203 13.8525 36.0702 13.3024 35.3978 13.3024H33.5334C33.1972 13.3024 32.9221 13.5775 32.9221 13.9137C32.9221 14.2499 33.1972 14.5249 33.5334 14.5249H35.3978V30.357H34.1752V23.6635C34.1752 23.3273 33.9002 23.0522 33.564 23.0522ZM20.7272 38.273H16.4483V36.4392H20.7272V38.273ZM35.3978 31.5795V35.2472H1.77764V31.5795H35.3978Z" fill="#FFAC00"/>
<path d="M32.3414 34.0246H33.564C33.9002 34.0246 34.1753 33.7495 34.1753 33.4133C34.1753 33.0771 33.9002 32.8021 33.564 32.8021H32.3414C32.0052 32.8021 31.7302 33.0771 31.7302 33.4133C31.7302 33.7495 32.0052 34.0246 32.3414 34.0246Z" fill="#FFAC00"/>
<path d="M30.8132 0.465576H6.3622C5.6898 0.465576 5.13965 1.01572 5.13965 1.68813V27.6673C5.13965 28.3398 5.6898 28.8899 6.3622 28.8899H30.8132C31.4856 28.8899 32.0358 28.3398 32.0358 27.6673V1.68813C32.0358 1.01572 31.4856 0.465576 30.8132 0.465576ZM6.3622 1.68813H30.8132V5.35578H6.3622V1.68813ZM6.3622 27.6673V6.57833H30.8132V27.6673H6.3622Z" fill="#FFAC00"/>
<path d="M21.0635 20.1181C20.8189 19.9653 20.4827 20.0264 20.2994 20.2403C19.8409 20.7599 19.1685 20.9739 17.9765 20.9739C16.7845 20.9739 16.1121 20.7599 15.6537 20.2403C15.4703 20.0264 15.1341 19.9653 14.8896 20.1181C12.8418 21.3406 11.7109 23.2662 11.7109 25.5279C11.7109 25.8641 11.986 26.1392 12.3222 26.1392H23.6308C23.967 26.1392 24.2421 25.8641 24.2421 25.5279C24.2421 23.2662 23.1112 21.3406 21.0635 20.1181ZM12.9641 24.9166C13.1169 23.4801 13.9115 22.1964 15.1341 21.4018C15.9899 22.0742 17.0902 22.1964 17.9765 22.1964C18.8629 22.1964 19.9632 22.1047 20.8189 21.4018C22.0109 22.1964 22.8056 23.4801 22.989 24.9166H12.9641Z" fill="#FFAC00"/>
<path d="M15.1951 18.4371C16.5094 19.9653 18.8322 20.1486 20.391 18.8344C21.9497 17.5202 22.1026 15.1973 20.7883 13.6386C19.4741 12.1104 17.1512 11.927 15.5925 13.2412C14.4005 14.2498 14.0031 15.9308 14.5839 17.3673L11.2218 19.4762C10.9468 19.6596 10.8551 20.0264 11.0385 20.332C11.2218 20.6377 11.5886 20.6988 11.8942 20.5154L15.1951 18.4371ZM17.9764 13.608C19.3212 13.608 20.4215 14.7083 20.4215 16.0531C20.4215 17.3979 19.3212 18.4982 17.9764 18.4982C16.6316 18.4982 15.5313 17.3979 15.5313 16.0531C15.5313 14.7083 16.6316 13.608 17.9764 13.608Z" fill="#FFAC00"/>
</svg>
