<svg width="52" height="34" viewBox="0 0 52 34" fill="none" xmlns="http://www.w3.org/2000/svg">
<path d="M25.8113 14.9384C29.0183 14.9384 31.9527 16.1135 34.1587 18.0769C35.9858 16.4795 38.4002 15.5263 41.0335 15.5263C46.6948 15.5263 51.3258 19.9269 51.3258 25.6402V29.256C51.3258 30.0294 50.6972 30.6593 49.9231 30.6593H38.1797V31.5048C38.1797 32.3381 37.5005 33.0173 36.6672 33.0173H14.9554C14.1221 33.0173 13.4429 32.3381 13.4429 31.5048V30.6593H1.70013C0.926038 30.6593 0.297485 30.0294 0.297485 29.256V25.6402C0.297485 19.9269 4.9285 15.5263 10.5897 15.5263C13.2231 15.5263 15.6367 16.4788 17.4639 18.0762C19.6691 16.1128 22.6043 14.9384 25.8112 14.9384H25.8113ZM13.4429 28.8472V27.0892C13.4429 24.1234 14.4803 21.4551 16.2061 19.3782C14.71 18.0997 12.7423 17.3385 10.5898 17.3385C5.92097 17.3385 2.10973 20.9193 2.10973 25.6402V28.8472H13.4429L13.4429 28.8472ZM35.4165 19.3789C37.1424 21.4558 38.1797 24.1234 38.1797 27.0892V28.8471H49.5137V25.6402C49.5137 20.9192 45.7024 17.3385 41.0336 17.3385C38.8811 17.3385 36.912 18.1004 35.4166 19.3789L35.4165 19.3789ZM33.3197 19.7656C31.4062 17.8885 28.7458 16.7506 25.8113 16.7506C22.8769 16.7506 20.2164 17.8885 18.3029 19.7656C16.4215 21.6113 15.255 24.1805 15.255 27.0892V31.2052H36.3675V27.0892C36.3675 24.1805 35.201 21.6114 33.3196 19.7656H33.3197Z" fill="#FFA500"/>
<path d="M25.8113 0.00585938C29.5534 0.00585938 32.5877 3.04017 32.5877 6.78223C32.5877 10.5236 29.5527 13.5579 25.8113 13.5579C22.07 13.5579 19.0349 10.5236 19.0349 6.78223C19.0349 3.04017 22.0693 0.00585938 25.8113 0.00585938V0.00585938ZM25.8113 1.81803C23.0702 1.81803 20.8471 4.04115 20.8471 6.78222C20.8471 9.52331 23.0702 11.7457 25.8113 11.7457C28.5524 11.7457 30.7755 9.5233 30.7755 6.78222C30.7755 4.04114 28.5524 1.81803 25.8113 1.81803V1.81803Z" fill="#FFA500"/>
<path d="M41.0333 3.11865C44.1825 3.11865 46.7467 5.6828 46.7467 8.83198C46.7467 11.9869 44.1875 14.5446 41.0333 14.5446C37.8792 14.5446 35.32 11.9869 35.32 8.83198C35.32 5.6828 37.8842 3.11865 41.0333 3.11865V3.11865ZM41.0333 4.93082C38.8744 4.93082 37.1322 6.67379 37.1322 8.83197C37.1322 10.9859 38.8794 12.7324 41.0333 12.7324C43.1872 12.7324 44.9345 10.9859 44.9345 8.83197C44.9345 6.67307 43.1922 4.93082 41.0333 4.93082Z" fill="#FFA500"/>
<path d="M10.5897 3.11865C13.7389 3.11865 16.303 5.6828 16.303 8.83198C16.303 11.9869 13.7438 14.5446 10.5897 14.5446C7.4355 14.5446 4.87634 11.9869 4.87634 8.83198C4.87634 5.6828 7.44049 3.11865 10.5897 3.11865V3.11865ZM10.5897 4.93082C8.43076 4.93082 6.68852 6.67307 6.68852 8.83197C6.68852 10.9859 8.43576 12.7324 10.5897 12.7324C12.7436 12.7324 14.4908 10.9859 14.4908 8.83197C14.4908 6.67378 12.7486 4.93082 10.5897 4.93082Z" fill="#FFA500"/>
</svg>
